<svg data-v-423bf9ae="" xmlns="http://www.w3.org/2000/svg" viewBox="0 0 180.83334105986143 60" class="font"><!----><!----><!----><g data-v-423bf9ae="" id="a84cdefd-cd45-4c4d-bfa8-c9141f30a7a0" fill="black" transform="matrix(5.952380997433594,0,0,5.952380997433594,-0.8333334165906479,-2.499999224193516)"><path d="M4.14 0.42L0.14 10.50L2.42 10.50L3.08 8.68L7.10 8.68L7.77 10.50L10.08 10.50L6.16 0.42ZM5.10 3.21L6.43 6.83L3.77 6.83ZM14.36 0.42L10.36 10.50L12.64 10.50L13.30 8.68L17.32 8.68L17.99 10.50L20.30 10.50L16.38 0.42ZM15.32 3.21L16.65 6.83L13.99 6.83ZM24.58 0.42L20.58 10.50L22.86 10.50L23.52 8.68L27.54 8.68L28.21 10.50L30.52 10.50L26.60 0.42ZM25.54 3.21L26.87 6.83L24.21 6.83Z"></path></g><!----><!----></svg>